PathFileType	4	(X/Y/Z)	Kaydara	
DataRate	CameraRate	NumFrames	NumMarkers	Units	OrigDataRate	OrigDataStartFrame	OrigNumFrames	
120.00	120.00	4	72	mm	120.00	196	261	
Frame#	Time	Hips			RightUpLeg			RightLeg			RightFoot			RightFoot_End			LeftUpLeg			LeftLeg			LeftFoot			LeftFoot_End			Spine			Spine1			Spine2			Spine3			Neck			Head			Head_End			RightShoulder			RightArm			RightForeArm			RightHand			RightHandThumb1			RightHandThumb2			RightHandThumb3			RightHandThumb3_End			RightInHandIndex			RightHandIndex1			RightHandIndex2			RightHandIndex3			RightHandIndex3_End			RightInHandMiddle			RightHandMiddle1			RightHandMiddle2			RightHandMiddle3			RightHandMiddle3_End			RightInHandRing			RightHandRing1			RightHandRing2			RightHandRing3			RightHandRing3_End			RightInHandPinky			RightHandPinky1			RightHandPinky2			RightHandPinky3			RightHandPinky3_End			LeftShoulder			LeftArm			LeftForeArm			LeftHand			LeftHandThumb1			LeftHandThumb2			LeftHandThumb3			LeftHandThumb3_End			LeftInHandIndex			LeftHandIndex1			LeftHandIndex2			LeftHandIndex3			LeftHandIndex3_End			LeftInHandMiddle			LeftHandMiddle1			LeftHandMiddle2			LeftHandMiddle3			LeftHandMiddle3_End			LeftInHandRing			LeftHandRing1			LeftHandRing2			LeftHandRing3			LeftHandRing3_End			LeftInHandPinky			LeftHandPinky1			LeftHandPinky2			LeftHandPinky3			LeftHandPinky3_End			
		X1	Y1	Z1	X2	Y2	Z2	X3	Y3	Z3	X4	Y4	Z4	X5	Y5	Z5	X6	Y6	Z6	X7	Y7	Z7	X8	Y8	Z8	X9	Y9	Z9	X10	Y10	Z10	X11	Y11	Z11	X12	Y12	Z12	X13	Y13	Z13	X14	Y14	Z14	X15	Y15	Z15	X16	Y16	Z16	X17	Y17	Z17	X18	Y18	Z18	X19	Y19	Z19	X20	Y20	Z20	X21	Y21	Z21	X22	Y22	Z22	X23	Y23	Z23	X24	Y24	Z24	X25	Y25	Z25	X26	Y26	Z26	X27	Y27	Z27	X28	Y28	Z28	X29	Y29	Z29	X30	Y30	Z30	X31	Y31	Z31	X32	Y32	Z32	X33	Y33	Z33	X34	Y34	Z34	X35	Y35	Z35	X36	Y36	Z36	X37	Y37	Z37	X38	Y38	Z38	X39	Y39	Z39	X40	Y40	Z40	X41	Y41	Z41	X42	Y42	Z42	X43	Y43	Z43	X44	Y44	Z44	X45	Y45	Z45	X46	Y46	Z46	X47	Y47	Z47	X48	Y48	Z48	X49	Y49	Z49	X50	Y50	Z50	X51	Y51	Z51	X52	Y52	Z52	X53	Y53	Z53	X54	Y54	Z54	X55	Y55	Z55	X56	Y56	Z56	X57	Y57	Z57	X58	Y58	Z58	X59	Y59	Z59	X60	Y60	Z60	X61	Y61	Z61	X62	Y62	Z62	X63	Y63	Z63	X64	Y64	Z64	X65	Y65	Z65	X66	Y66	Z66	X67	Y67	Z67	X68	Y68	Z68	X69	Y69	Z69	X70	Y70	Z70	X71	Y71	Z71	X72	Y72	Z72	

196	1.625	5081.203	893.81699	129.612	5107.450434791251	859.7334940819727	65.99122355368762	5007.350326911031	454.54865710069646	50.79683424897177	5113.449758091884	111.49961180323092	-63.37041781532349	5031.764150140826	22.24304526275127	79.64329427646008	5066.5026759064	901.1272656919078	206.51749223671575	4968.839216606348	507.0233638131444	308.1930950541274	4857.537957233723	88.58341995209004	378.50607284882096	4710.96019790014	20.50400762751778	278.2712476100138	5034.765073086922	1018.2654976373135	76.31499042508268	4983.000394428382	1085.0398200815775	28.469022152455096	4924.817080684275	1149.3538097732555	-23.46346064661139	4863.085613709245	1202.1702016065522	-76.37057587775966	4796.195957624652	1259.3657295790063	-131.099203717528	4731.735159853854	1308.7724316157148	-177.74521406168526	4593.37303275748	1387.2392570167833	-185.3731376230256	4825.054328113592	1229.52667183073	-130.93370434279035	4844.819953162566	1175.3958839773989	-188.83296147097977	4851.91858521964	999.5478868257267	-109.49458026282647	4820.646098736792	851.7963735383835	-94.09271296519483	4816.596715963775	847.3409836515175	-108.23397641340694	4803.095820001769	841.3885470667575	-112.9940769799356	4794.160143555106	835.3388184680603	-113.73915103531158	4787.109804605882	828.6662128795958	-112.16183912189537	4818.959347198694	839.4932607678653	-100.61615670687794	4813.509467699811	816.2773663116407	-99.76765382971823	4804.041885734899	803.3904274635125	-97.5907421059859	4795.083881018677	800.5258189713533	-97.52577563321306	4785.597175120716	801.6267295553725	-98.3410841351162	4820.147684235122	835.2768903965863	-93.58067871106871	4815.4764261054825	810.3512367078116	-88.94803288343712	4805.312797654365	795.8120680136615	-85.6450437807178	4794.585610754952	792.1271654412012	-85.12156627866769	4784.244481261437	793.2205057080402	-85.79728411425283	4821.185902430971	832.8401957199527	-88.63090737782403	4818.075112892925	808.2395451221814	-80.17985608089236	4809.394246832843	795.1194967659974	-76.36022132678042	4799.141433770896	791.3273947667302	-75.35570605230038	4789.462900186333	792.2427672422825	-75.75430984393083	4822.070985125977	831.1003132325941	-82.95737692031636	4819.9616240391015	807.2879595798424	-71.70525529646656	4813.30080399604	796.1911665969666	-67.21584015644254	4805.96288234452	793.139429533286	-65.79102100463749	4797.47015027277	793.7858439469416	-65.74579633258259	4811.1682805076025	1250.3858527505806	-94.22083738944531	4794.736157351588	1257.8462435663419	-13.868292324501475	4837.334742716621	1066.337592296559	-28.80037251510941	4883.240837455871	899.8612485685251	-50.67327369061376	4882.297513948409	895.209476771093	-68.5029257936964	4896.822168008505	883.8221732770629	-75.8058137638007	4908.258683254096	873.70224410269	-78.33613005321325	4918.923352166735	863.3923727717969	-78.25945223101091	4885.820116179109	886.7517299612033	-61.46531357751398	4899.55050190806	859.3784800891201	-66.37104912519465	4915.131954032002	841.2966089768751	-67.18351830088605	4925.9849242363225	834.4938852567245	-67.96164194967946	4935.754427490119	831.8573620548038	-68.78984964146615	4889.223045455432	881.7945247874322	-54.22059731805672	4904.454177196873	852.4138477861563	-55.08757467712441	4921.868639937036	832.1188332085178	-54.99905515587035	4935.160061447129	823.6409207676286	-55.46991852566309	4945.945779994265	820.6245016459004	-56.148654853104404	4891.22701527167	878.9611965350541	-48.98770536275348	4906.470976829385	850.0841589493804	-45.25342710875519	4922.047141906216	831.8650158433902	-44.17814957610909	4935.078951760496	823.4059815854391	-44.10227505666954	4945.320318284511	820.4364390920202	-44.48927701537711	4893.531389815946	876.7217086981486	-42.73020311502936	4908.770960087243	848.7471192737621	-35.484863027939696	4921.798047254843	833.4572986568121	-33.08284394117688	4931.57162529233	826.9483372501926	-32.28207830639173	4940.798118160679	824.122761823003	-32.19590032187175
197	1.633	5081.203	893.81699	129.612	5105.470710677847	858.6938809899289	65.90854599844678	5007.299081830646	452.8953847237343	51.682222268450786	5113.709746976433	111.53225572967348	-66.65933272125179	5034.237482038694	21.665717702394268	77.24558198051746	5068.330303385557	902.1035214306452	206.6060602695998	4970.351821292985	507.90363492993873	307.6091939419683	4858.589345586388	89.61917288998134	377.4044528997555	4712.553590765856	21.143151723063113	276.70270006447225	5035.64781158815	1018.5092221198513	76.11969882772857	4984.074007145391	1085.4433765374765	28.281874304788822	4926.004946434405	1149.928184655781	-23.57986204265859	4864.239617645738	1202.9242674407726	-76.28995428766332	4797.316075799955	1260.2823987034578	-130.82792687965676	4732.749748145739	1309.8108296413234	-177.19486026274606	4594.358419694541	1388.324184333752	-184.34311526305987	4825.305395074734	1229.7022088782082	-130.53448686304966	4841.042162770746	1172.5141943360068	-186.5317022955859	4846.454644401647	1000.5453551569669	-98.79992109810577	4809.041227135898	853.330609226971	-73.40134520773674	4802.952493086917	848.1958883908894	-85.60079739137699	4789.0866814518495	842.5947585809306	-87.90467446829634	4780.110013887899	836.8919313222806	-86.9619391250192	4773.207834649902	830.5959957333371	-83.99699720601133	4805.7596961764	840.5710430173821	-77.91162036906465	4799.2363396704695	817.3891164351423	-73.9605416861163	4789.728713216003	804.9602892265705	-69.48881342924474	4781.043560525205	802.5330433718847	-68.1449116012872	4771.983534416249	804.0988618353844	-68.00130884194103	4807.598696687905	836.652248652163	-71.03943231961135	4802.232143781027	811.9205612628255	-63.46898967494023	4792.115037442867	797.9209807327028	-57.693338957734625	4781.760330768172	794.7827897200372	-55.641961175027156	4771.907113348969	796.3940844739802	-55.275791085006446	4809.118002888465	834.4211882380577	-66.28510736813352	4805.784158089671	810.1619436454824	-55.373525514163845	4797.237215537236	797.552512284381	-49.43546427794246	4787.393277231822	794.3091645143375	-46.97668678939637	4778.197002963075	795.7216890058082	-46.404903685759116	4810.635924332979	832.9467605823365	-60.91956185638962	4808.691644185998	809.5986677408096	-47.60257691041373	4802.284757526004	798.9721852020796	-41.48486908762719	4795.316030689051	796.3504257342848	-39.032230169175804	4787.291340308076	797.4543371242714	-38.146349568794726	4813.179664940491	1251.9771641923724	-94.16343853849189	4800.063207219432	1263.6383011785745	-13.688360408851608	4836.325353403191	1070.5078462451227	-22.1146008029772	4877.698829608377	901.9382660452076	-38.99622990037963	4874.584578625547	896.3665883661769	-55.68222377067378	4887.446524446572	884.1921593003224	-63.349312951122386	4897.913609340092	873.6001462433773	-66.19352328098927	4907.931346162866	862.9617952906782	-66.430080403831	4878.559587333097	888.094037614771	-48.60188981387592	4890.4668774675865	859.8934913841044	-52.58427725673978	4904.908175180919	841.252439197349	-53.575851675632244	4915.11080024507	834.1133788034998	-54.93889603213156	4924.381464960596	831.2060958317506	-56.57068094277915	4882.5447161391185	883.3733125517431	-41.59227644888673	4896.312530383917	853.3136228718323	-41.68558034350125	4912.565751921769	832.4423377290192	-41.82754307857444	4925.112334478797	823.5749182708009	-43.020909039209286	4935.371571455668	820.2701489587417	-44.58708024600625	4885.00609658154	880.7283333451637	-36.540913913236565	4899.334423538897	851.4067475485996	-32.247055801117845	4913.985483709564	832.7210497242339	-31.409793571690475	4926.345058977065	823.9052772391739	-32.05054762912408	4936.113303753308	820.6736031445184	-33.28130606178629	4887.893912353946	878.7285979329704	-30.58345303717715	4902.6513062431095	850.4943637588667	-22.9822558409682	4915.077387485033	834.888615507457	-20.831252297300644	4924.4282528338845	828.147345692466	-20.582426605714822	4933.274551941491	825.1056199239889	-21.26050064216347
198	1.642	5081.203	893.81699	129.612	5103.471800334137	857.6842701937044	65.91188665101008	5007.306185106345	451.2746570906058	52.51320739019395	5113.86386193941	111.62886642206705	-70.03352850260549	5036.685144803372	21.079405736825915	74.72871368539342	5070.16867316396	903.0526633738895	206.61957808205858	4971.767568171604	508.79241006374554	306.967781787256	4859.578486826493	90.67281911785598	376.3549004080721	4714.096041650206	21.81787721024178	275.161421232251	5036.561857206015	1018.732901288063	75.8699931210497	4985.185144557161	1085.825590238171	28.0329392721245	4927.23452017321	1150.4833530623025	-23.75956608605125	4865.43724678896	1203.6679588965312	-76.26546121816389	4798.481226426931	1261.198214077541	-130.60443375941995	4733.802139195814	1310.857549483944	-176.67244432886935	4595.371989775646	1389.3954225558366	-183.3554266294709	4825.587011827678	1229.9126580088168	-130.14222083461306	4837.251633636894	1169.9419543904833	-184.0297003675416	4841.517345771864	1002.2282089053297	-88.07159074428915	4798.460607283253	856.0692221938654	-52.83264207470535	4790.400280919109	850.4624779562828	-62.982304521571095	4776.321936767339	845.3100716595528	-62.83147751378924	4767.412340824411	840.0040226713442	-60.22212511598305	4760.750070799308	834.1109695304617	-55.904444641754544	4793.658499011073	843.02373430848	-55.278073298601775	4786.211465454753	820.0325171903621	-48.245963401457715	4776.8040378441965	808.1249384156646	-41.52627835842587	4768.485478661341	806.1515616044592	-38.93199274139709	4759.934141816537	808.1806075312486	-37.85271883266355	4796.149945016086	839.3460174121319	-48.62470185596443	4790.2351613335795	814.930630369262	-38.167501664355996	4780.317404674754	801.5315121689313	-29.977619170290673	4770.448175111995	798.9560981083116	-26.43628891192666	4761.172554966941	801.0816375474363	-25.05536193575869	4798.1474525638805	837.277055454995	-44.104315417749675	4794.718900313656	813.4321728707507	-30.810809260971276	4786.438647827674	801.3780217146922	-22.8126286795233	4777.112345846351	798.694466275718	-18.94011153538316	4768.482547229957	800.5985419538133	-17.425308649549677	4800.2930903575025	836.0103689817438	-39.09197335703904	4798.627417604991	813.1591979956409	-23.809476550312255	4792.579537362423	803.0253725353909	-16.12133761120168	4786.058735926714	800.8351511882579	-12.675840203136971	4778.576343564049	802.3878626125379	-10.97665652780789	4815.2522183122965	1253.5264992489442	-94.20166512869783	4805.51118357598	1269.3054452400975	-13.90422941095592	4835.736584457632	1075.0444343594327	-15.635939677980605	4872.604732871168	904.9275867971212	-27.48659517190213	4867.328269411833	898.627391607255	-42.91259397830243	4878.449085433122	885.7640683224402	-50.86687784922959	4887.890442157374	874.7540721533894	-53.98745348159246	4897.212872402101	863.8201032627803	-54.519731395511556	4871.758930532251	890.5142152925292	-35.836198647213436	4881.818396428264	861.6520898997526	-38.85008702731585	4895.056999180429	842.5249407875369	-39.991349249232904	4904.5488063961075	835.0705908960585	-41.91251489020123	4913.256015251506	831.8935176422169	-44.31995444461316	4876.32038193384	885.983280443963	-29.107140474804062	4888.597593210673	855.3809711129517	-28.407316640623343	4903.62057752	834.0064138338212	-28.75380762583434	4915.349002116516	824.771640380721	-30.640293058977875	4925.010879064106	821.1780067203455	-33.06478060722684	4879.236096345116	883.4898033713298	-24.270647494918535	4892.622964819938	853.8149966334768	-19.428938373216717	4906.288052483397	834.7192506358779	-18.813381821934165	4917.9042832335535	825.5643275345825	-20.145774071881117	4927.132578800109	822.0682467690557	-22.194498643512812	4882.701023220163	881.6796496848566	-18.65236441562142	4896.950135763126	853.2398950112143	-10.730435302879044	4908.725440415591	837.3519598175055	-8.827182806445673	4917.601226886732	830.3856434165968	-9.116807458750866	4926.007847154949	827.1225482890967	-10.539014507976422
199	1.65	5081.203	893.81699	129.612	5101.462894467443	856.7091578273162	65.99761655590781	5007.367103994865	449.6947830335275	53.28867793248598	5113.918967730744	111.7900605808851	-73.47153792686605	5039.0925994853105	20.48678223856459	72.10242721794503	5072.010004621672	903.9706135493855	206.56126717737823	4973.084977548051	509.68446011095267	306.2731555182501	4860.505785189173	91.735003070077	375.3491525934841	4715.582623307967	22.51900001447198	273.64617751708	5037.500285665688	1018.9350819172371	75.56868975670807	4986.325544504219	1086.1842464688227	27.72540342692013	4928.496749050748	1151.0162344714731	-23.999533353591836	4866.669612681291	1204.3970710182043	-76.29517497071308	4799.682753702077	1262.1078599745772	-130.42805622259195	4734.886191629689	1311.9074257571338	-176.1805425767063	4596.407180058778	1390.446531753259	-182.4151606171018	4825.895633632515	1230.155024683299	-129.7583448781517	4833.470243583532	1167.6835140967755	-181.34622387082987	4837.123135571973	1004.5669066993072	-77.37261563137226	4788.914165786184	859.9501296632019	-32.516975129382196	4778.967905894097	854.0759700063502	-40.53067828597055	4764.827769279317	849.4592432214263	-37.94824196769369	4756.08915708948	844.591996707054	-33.707192710776745	4749.7525137494895	839.1210061928782	-28.081999692409696	4782.6756980787995	846.7848112993738	-32.865003125573566	4774.453526864633	824.1298034267446	-22.7979987209347	4765.278984022624	812.7958898265729	-13.89456289154299	4757.414941378068	811.2859686150884	-10.0885053222013	4749.448731858917	813.7706618982784	-8.104638972475428	4785.812921171795	843.2903824190437	-26.48160177555036	4779.491172264614	819.3019674204909	-13.210304198389771	4769.91622694636	806.5523505112587	-2.6828914713607332	4760.637914527014	804.5473642797846	2.2986211569765516	4752.023219611533	807.1769511977102	4.658750289321375	4788.279853277993	841.3393814210369	-22.22992283546892	4784.87477198011	817.9709113959846	-6.649225900490116	4776.984677358668	806.5062656419698	3.3355462293265816	4768.276881119358	804.385359159747	8.570251332474314	4760.291511349303	806.7692545992996	10.99296392573524	4791.040955293635	840.2221698324715	-17.61104599770116	4789.753854033497	817.8903137309522	-0.47411280330064187	4784.160879779797	808.2629900254076	8.715577753250997	4778.16014218577	806.4998302684489	13.111493741803926	4771.288275157742	808.4871740975416	15.590094415572437	4817.371933873952	1255.0266970683524	-94.3320526928643	4811.045364310415	1274.8192635183527	-14.504304588393211	4835.556992577666	1079.9080172109655	-9.391392269802413	4867.936322281253	908.7761076543392	-16.173767196030948	4860.525176583785	901.9409286505966	-30.236542481946266	4869.839235805661	888.4901936051417	-38.3974219369186	4878.204993916865	877.1182169685798	-41.75269653219622	4886.786977374988	865.9227674877327	-42.55833242247418	4865.407631474959	893.9599993603858	-23.207449219119304	4873.602933399616	864.602836354562	-25.210707233689227	4885.581768919818	845.0643391771708	-26.467055126119334	4894.306853821968	837.3176118644117	-28.913418092089568	4902.390558901342	833.873821218045	-32.06156347950053	4870.532466272828	889.571202888224	-16.799498210078177	4881.29615152655	858.5629503565	-15.287389154338975	4895.024910034588	836.7598076652425	-15.806131367410762	4905.866908641184	827.1820216394121	-18.348644774445596	4914.865323017773	823.3012810614073	-21.594486899789786	4873.894223625724	887.1916671086142	-12.20773967677194	4886.313161259257	857.254562099891	-6.827344521773899	4898.9347858434385	837.8066146264161	-6.410991492928019	4909.74090980835	828.3321696391181	-8.402234354477532	4918.366670764318	824.5715099433089	-11.235588646623825	4877.923763737743	885.5201823542006	-6.963174616477257	4891.634059246277	856.928158537096	1.2493309689689838	4902.709983164655	840.7926471450528	2.914107962974537	4911.060751941476	833.6099365392134	2.1057189049875547	4918.971537988474	830.1220592434568	-0.03352459282122311
